<svg id="color" enable-background="new 0 0 24 24" height="512" viewBox="0 0 24 24" width="512" xmlns="http://www.w3.org/2000/svg"><path d="m21 1h-18c-1.654 0-3 1.346-3 3v16c0 1.654 1.346 3 3 3h18c1.654 0 3-1.346 3-3v-16c0-1.654-1.346-3-3-3z" fill="#607d8b"/><path d="m21 21h-18c-.551 0-1-.448-1-1v-14h20v14c0 .552-.449 1-1 1z" fill="#fff"/><g fill="#2196f3"><path d="m20.25 17c-.24 0-.472-.116-.614-.32l-1.136-1.622-1.136 1.623c-.187.268-.529.383-.84.285-.312-.099-.524-.389-.524-.716v-4.5c0-.414.336-.75.75-.75s.75.336.75.75v2.121l.386-.551c.281-.4.947-.4 1.229 0l.386.551v-2.121c0-.414.336-.75.75-.75s.749.336.749.75v4.5c0 .327-.212.617-.524.715z"/><path d="m13.75 17c-.24 0-.472-.116-.614-.32l-1.136-1.622-1.136 1.623c-.188.268-.528.383-.84.285-.312-.099-.524-.389-.524-.716v-4.5c0-.414.336-.75.75-.75s.75.336.75.75v2.121l.386-.551c.281-.4.947-.4 1.229 0l.385.551v-2.121c0-.414.336-.75.75-.75s.75.336.75.75v4.5c0 .327-.212.617-.524.715z"/><path d="m7.25 17c-.24 0-.472-.116-.614-.32l-1.136-1.622-1.136 1.622c-.187.268-.53.383-.84.285-.312-.098-.524-.388-.524-.715v-4.5c0-.414.336-.75.75-.75s.75.336.75.75v2.121l.386-.551c.281-.4.947-.4 1.228 0l.386.551v-2.121c0-.414.336-.75.75-.75s.75.336.75.75v4.5c0 .327-.212.617-.524.715z"/></g><path d="m12 1h-9c-1.654 0-3 1.346-3 3v16c0 1.654 1.346 3 3 3h9v-2h-9c-.551 0-1-.448-1-1v-14h10z" fill="#546d79"/><path d="m6.5 13.871v-2.121c0-.414.336-.75.75-.75s.75.336.75.75v4.5c0 .327-.212.617-.524.715l-.226.035c-.24 0-.472-.116-.614-.32l-1.136-1.622-1.136 1.622c-.143.204-.376.32-.616.32-.075 0-.15-.011-.224-.035-.312-.098-.524-.388-.524-.715v-4.5c0-.414.336-.75.75-.75s.75.336.75.75v2.121l.386-.551c.141-.2.377-.3.614-.3s.474.1.614.3zm5.5-7.871h-10v14c0 .552.449 1 1 1h9v-5.942l-1.136 1.623c-.143.203-.375.319-.615.319-.075 0-.151-.011-.225-.035-.312-.098-.524-.388-.524-.715v-4.5c0-.414.336-.75.75-.75s.75.336.75.75v2.121l.386-.551c.141-.2.377-.3.614-.3z" fill="#dedede"/><path d="m10.25 11c-.414 0-.75.336-.75.75v4.5c0 .327.212.617.524.715.074.024.15.035.225.035.24 0 .472-.116.615-.32l1.136-1.622v-2.038c-.237 0-.474.1-.614.3l-.386.551v-2.121c0-.414-.336-.75-.75-.75z" fill="#1d83d4"/><path d="m7.25 11c-.414 0-.75.336-.75.75v2.121l-.386-.551c-.141-.2-.377-.3-.614-.3s-.474.1-.614.3l-.386.551v-2.121c0-.414-.336-.75-.75-.75s-.75.336-.75.75v4.5c0 .327.212.617.524.715.074.024.149.035.224.035.24 0 .473-.116.616-.32l1.136-1.622 1.136 1.623c.142.203.374.319.614.319l.226-.035c.312-.098.524-.388.524-.715v-4.5c0-.414-.336-.75-.75-.75z" fill="#1d83d4"/></svg>